<?xml version="1.0" standalone="no"?>
<!DOCTYPE svg PUBLIC "-//W3C//DTD SVG 20010904//EN"
 "http://www.w3.org/TR/2001/REC-SVG-20010904/DTD/svg10.dtd">
<svg version="1.0" xmlns="http://www.w3.org/2000/svg"
 width="1000.000000pt" height="1000.000000pt" viewBox="0 0 1000.000000 1000.000000"
 preserveAspectRatio="xMidYMid meet">
<metadata>
Created by potrace 1.14, written by Peter Selinger 2001-2017
</metadata>
<g transform="translate(0.000000,1000.000000) scale(0.100000,-0.100000)"
fill="#000000" stroke="none">
<path d="M4400 9949 c-218 -23 -541 -87 -805 -161 -150 -42 -185 -63 -56 -34
120 27 121 15 1 -24 l-115 -38 96 -1 c65 -1 101 -5 115 -15 19 -14 19 -15 -4
-39 -32 -34 -118 -78 -253 -131 -120 -46 -310 -108 -316 -103 -2 2 52 27 119
55 148 62 240 117 236 141 -3 13 -19 17 -88 19 -135 5 -266 -24 -435 -94 -51
-22 -82 -40 -78 -47 3 -6 1 -7 -6 -3 -14 9 -371 -173 -371 -189 0 -3 37 12 83
31 45 20 92 36 104 36 13 0 21 3 19 7 -2 3 12 6 32 7 l37 0 -40 -15 c-115 -44
-473 -235 -510 -273 -5 -5 41 15 103 46 112 56 262 120 268 114 1 -2 -38 -24
-89 -48 -50 -25 -108 -61 -127 -81 -20 -20 -76 -61 -125 -91 -50 -30 -108 -72
-130 -94 -23 -21 -56 -52 -75 -67 -31 -26 -32 -30 -16 -39 20 -11 89 -5 261
23 152 26 311 23 368 -5 77 -38 69 -83 -34 -213 -105 -133 -103 -153 24 -247
84 -62 96 -75 106 -113 6 -21 15 -29 42 -34 56 -11 422 -29 585 -29 236 0 387
-35 436 -101 11 -14 22 -50 25 -80 5 -52 4 -56 -28 -88 -22 -22 -124 -77 -289
-158 -140 -69 -269 -136 -287 -149 -18 -13 -47 -52 -65 -86 -45 -84 -147 -184
-306 -296 -220 -156 -235 -188 -129 -288 81 -79 137 -116 281 -190 66 -33 124
-67 129 -76 15 -23 2 -58 -46 -129 -98 -142 -117 -220 -75 -299 46 -84 145
-138 308 -167 115 -21 251 -13 530 32 443 70 487 76 630 82 221 8 339 -24 401
-109 42 -59 51 -97 58 -260 5 -126 9 -151 26 -175 34 -46 117 -80 253 -103
216 -36 262 -63 356 -209 35 -53 82 -113 106 -135 85 -77 204 -112 350 -103
160 9 277 66 496 244 308 248 729 598 841 698 209 186 343 293 478 381 175
115 385 251 385 250 0 -1 -12 -37 -25 -81 -14 -44 -28 -108 -32 -142 -5 -57
-4 -63 13 -63 10 0 31 12 47 28 32 30 -61 -129 -247 -422 -213 -335 -262 -402
-455 -625 -91 -106 -131 -165 -118 -177 18 -18 257 192 382 336 44 51 97 104
118 117 46 29 140 155 243 326 76 126 97 151 70 86 -19 -48 -28 -89 -19 -89 5
0 16 12 25 28 10 15 18 22 18 16 0 -15 -55 -175 -92 -265 -17 -43 -29 -82 -25
-86 4 -4 35 20 68 53 l61 59 -47 -95 c-26 -52 -70 -134 -96 -181 -65 -116 -69
-136 -30 -173 37 -36 39 -59 12 -171 -23 -96 -49 -157 -94 -227 -46 -70 -90
-113 -213 -208 -165 -128 -192 -181 -92 -188 41 -3 228 44 283 70 33 16 -21
-26 -120 -93 -181 -123 -344 -189 -467 -189 -79 0 -112 13 -175 71 -24 22 -52
39 -63 39 -57 0 -150 -136 -150 -219 1 -54 10 -68 69 -105 58 -37 43 -46 -84
-46 -220 0 -413 58 -440 134 -14 40 23 104 157 271 152 191 228 308 228 352 0
29 -5 36 -35 49 -19 7 -52 14 -74 14 -113 0 -409 -86 -498 -145 -96 -64 -125
-120 -124 -244 1 -78 4 -91 46 -181 25 -53 45 -107 45 -120 0 -37 -38 -106
-78 -141 -97 -85 -188 -90 -329 -17 -161 84 -284 103 -776 123 -373 15 -483
27 -554 63 -51 26 -69 48 -83 102 -54 205 -308 372 -641 421 -84 12 -185 10
-549 -11 -91 -5 -269 -9 -397 -10 l-232 0 17 -29 c16 -28 15 -31 -2 -50 -15
-16 -31 -21 -70 -21 -67 0 -118 27 -131 68 -8 28 -14 32 -43 32 -102 0 -172
-45 -172 -112 0 -49 25 -99 110 -218 68 -95 84 -124 115 -212 46 -132 169
-222 591 -431 232 -114 329 -147 574 -191 329 -59 464 -66 777 -40 395 33 543
21 621 -50 l36 -34 7 -133 c4 -74 3 -144 -2 -157 -14 -35 -114 -137 -201 -203
-153 -117 -387 -244 -623 -337 -151 -60 -608 -208 -705 -229 -112 -24 -385
-24 -516 0 -114 21 -248 62 -264 82 -11 13 3 15 111 15 215 1 325 24 504 105
256 118 454 263 470 347 19 101 -68 160 -465 318 -113 44 -356 155 -540 245
-184 90 -472 225 -640 300 -168 76 -330 150 -361 166 -212 106 -489 410 -626
685 l-68 136 -1 167 c-2 339 -34 435 -259 786 -152 237 -185 314 -185 432 0
62 47 442 61 495 17 64 59 72 212 37 59 -14 129 -21 197 -22 99 -1 113 2 230
42 182 62 281 113 356 185 71 68 79 95 39 122 -25 16 -29 15 -163 -54 -196
-100 -278 -125 -422 -126 -162 -1 -258 31 -314 107 -34 47 -12 54 92 29 51
-13 120 -22 165 -22 72 0 82 3 174 50 152 77 225 138 321 265 128 170 162 222
169 257 9 48 20 66 53 83 48 25 102 19 172 -19 93 -51 189 -77 303 -83 111 -6
185 9 260 52 76 45 210 96 351 135 151 42 258 79 251 87 -3 2 -56 -5 -119 -16
-182 -34 -388 -40 -388 -12 0 4 57 13 126 20 159 15 294 49 384 97 111 58 116
88 23 125 -48 19 -77 23 -163 23 -171 -1 -324 -52 -440 -148 -56 -47 -96 -58
-106 -31 -13 32 8 67 68 113 57 44 59 47 34 50 -54 7 -172 -43 -302 -128 -85
-56 -111 -65 -145 -55 -13 4 -78 60 -145 125 -138 134 -191 165 -312 182 -105
15 -157 5 -234 -44 -125 -81 -309 -171 -387 -189 -111 -27 -115 -26 -108 16 4
22 2 33 -4 29 -15 -9 -230 -337 -294 -449 -89 -154 -229 -438 -227 -460 2 -29
-23 -132 -49 -201 -22 -57 -23 -58 -29 -29 -6 27 -9 21 -34 -55 -38 -119 -72
-268 -86 -380 -6 -52 -21 -135 -32 -185 -18 -75 -20 -109 -14 -207 15 -290
119 -570 337 -903 109 -168 102 -161 -68 60 -161 211 -201 269 -249 368 -21
42 -41 77 -45 77 -12 0 19 -118 52 -196 17 -40 56 -113 87 -161 240 -378 301
-486 341 -605 27 -79 27 -123 1 -141 -30 -21 -65 -10 -153 50 -44 30 -82 52
-85 49 -6 -7 21 -49 70 -107 90 -107 247 -205 370 -231 51 -11 59 -10 78 7 11
10 20 29 20 41 0 72 -168 407 -302 602 -16 23 -26 42 -23 42 14 0 193 -287
245 -395 100 -205 129 -327 95 -399 -40 -84 -111 -86 -281 -10 -58 25 -108 44
-111 40 -11 -11 94 -112 204 -197 190 -148 348 -299 313 -299 -6 0 -21 7 -34
15 -13 9 -32 17 -42 20 -11 2 -39 11 -63 19 -33 12 -47 13 -58 5 -17 -15 -12
-34 38 -136 26 -51 39 -92 37 -110 -3 -25 -8 -28 -43 -31 -22 -2 -43 -8 -46
-14 -11 -17 6 -62 59 -155 81 -144 131 -248 157 -330 14 -43 43 -110 65 -150
21 -40 37 -73 35 -73 -2 0 -59 70 -126 156 -223 286 -328 376 -341 294 -2 -16
-11 -2 -32 47 -16 37 -94 194 -174 348 -80 154 -156 301 -169 326 -66 135
-212 616 -263 869 -35 172 -56 343 -66 535 l-8 140 -9 -95 c-4 -52 -6 -248 -3
-435 4 -335 13 -445 52 -690 9 -55 18 -113 21 -130 14 -92 71 -332 115 -483
294 -1029 923 -1947 1778 -2596 765 -581 1661 -923 2635 -1006 155 -13 625
-13 780 0 974 83 1870 425 2635 1006 1139 864 1846 2165 1961 3607 15 196 7
736 -15 917 -97 812 -357 1534 -792 2198 -509 777 -1222 1393 -2069 1789 -412
192 -978 365 -1302 398 -326 33 -495 38 -838 26 -180 -7 -283 -7 -289 -1 -12
12 -166 11 -286 -1z m23 -26 c-7 -2 -19 -2 -25 0 -7 3 -2 5 12 5 14 0 19 -2
13 -5z m1787 -329 c-194 -41 -229 -54 -281 -100 -26 -23 -53 -44 -61 -47 -22
-9 45 -64 94 -78 51 -14 215 -6 271 12 21 7 55 28 75 47 47 44 108 71 174 79
50 6 52 5 35 -11 -9 -10 -17 -23 -17 -30 0 -45 106 -112 224 -142 77 -19 148
-70 177 -125 19 -39 57 -74 90 -84 29 -9 19 -25 -34 -58 -41 -25 -71 -32 -224
-53 -415 -57 -470 -66 -591 -90 -173 -35 -272 -62 -582 -155 -491 -149 -695
-182 -900 -145 -165 30 -266 93 -276 171 -5 35 -1 45 30 81 41 48 160 131 332
232 144 84 184 116 184 145 0 14 -20 40 -56 73 -44 40 -55 55 -50 71 14 43
133 71 466 109 129 15 402 48 605 74 423 54 476 58 315 24z m-3218 -93 c16
-18 15 -20 -15 -34 -42 -20 -136 -57 -144 -57 -4 0 2 7 13 15 19 14 19 14 -1
15 -13 1 -4 9 28 26 26 14 50 31 54 39 8 21 46 18 65 -4z m-221 -55 c-9 -11
-9 -15 0 -18 6 -2 -17 -16 -52 -31 l-62 -27 24 26 c13 14 40 34 59 45 43 22
46 23 31 5z m4287 -438 c-8 -13 -29 -32 -47 -43 -18 -11 -60 -40 -94 -65 -53
-38 -59 -45 -39 -48 12 -2 54 4 92 12 105 24 115 18 20 -13 -170 -56 -289
-129 -464 -284 -145 -128 -196 -156 -196 -104 0 73 200 279 405 417 41 28 99
70 129 94 61 50 69 53 150 55 58 1 58 1 44 -21z m65 -125 c-7 -2 -21 -2 -30 0
-10 3 -4 5 12 5 17 0 24 -2 18 -5z m467 -519 c0 -2 -7 -4 -15 -4 -8 0 -15 4
-15 10 0 5 7 7 15 4 8 -4 15 -8 15 -10z m-5887 -368 c147 -85 143 -236 -10
-358 -37 -29 -53 -35 -53 -19 0 5 25 40 56 78 69 83 88 124 81 176 -16 115
-180 170 -349 117 -76 -24 -93 -25 -53 -3 65 36 100 43 190 40 78 -2 98 -7
138 -31z m6130 -223 c-5 -86 -3 -94 59 -309 36 -122 77 -242 91 -267 16 -28
47 -58 77 -78 28 -18 50 -34 50 -36 0 -11 -110 -53 -138 -53 -78 0 -116 46
-151 187 -21 85 -61 174 -105 232 -41 56 -36 116 19 230 46 94 94 181 100 181
2 0 1 -39 -2 -87z m32 -3328 c-58 -66 -61 -74 -22 -54 36 17 -16 -24 -108 -85
-107 -71 -305 -169 -305 -151 0 2 33 23 73 46 116 68 236 153 327 233 47 41
87 75 88 75 2 1 -22 -28 -53 -64z m-7694 -275 c28 -91 86 -317 93 -365 6 -37
5 -38 -8 -21 -36 45 -121 328 -132 436 -5 52 -4 54 11 35 8 -11 25 -49 36 -85z
m7399 -301 c-47 -45 -193 -179 -326 -299 -523 -476 -699 -613 -1115 -868 -107
-65 -299 -185 -428 -266 -297 -188 -957 -573 -998 -584 -6 -2 -16 14 -22 34
-8 31 -7 45 8 79 21 48 59 81 236 200 154 104 338 241 453 338 134 113 653
498 743 552 46 27 163 82 259 123 315 131 564 262 820 429 129 85 327 233 398
299 26 24 49 43 52 43 3 0 -33 -36 -80 -80z"/>
<path d="M2262 9176 c-46 -33 -53 -43 -14 -20 19 10 38 25 44 32 15 17 8 14
-30 -12z"/>
<path d="M1659 8702 c-84 -56 -396 -375 -358 -365 13 4 30 -3 48 -21 41 -39
94 -55 145 -44 116 25 266 136 266 197 0 47 -43 65 -137 57 -61 -6 -74 -4 -79
9 -8 20 10 46 85 123 34 34 60 62 59 62 -2 0 -15 -8 -29 -18z"/>
<path d="M242 6498 c-6 -23 -8 -46 -5 -51 3 -5 1 -12 -4 -16 -6 -3 -14 -33
-17 -66 -13 -101 11 -50 29 64 17 108 15 142 -3 69z"/>
<path d="M91 5924 c0 -11 3 -14 6 -6 3 7 2 16 -1 19 -3 4 -6 -2 -5 -13z"/>
<path d="M72 5808 c-7 -46 -12 -101 -12 -124 0 -22 -3 -43 -6 -47 -3 -3 -5
-78 -4 -168 1 -170 20 -366 45 -478 21 -89 57 -212 62 -208 2 3 -10 65 -26
139 -47 212 -64 360 -64 573 0 105 6 234 12 288 7 55 11 101 8 103 -2 2 -9
-33 -15 -78z"/>
<path d="M33 5495 c0 -27 2 -38 4 -22 2 15 2 37 0 50 -2 12 -4 0 -4 -28z"/>
<path d="M340 4487 c0 -22 30 -56 86 -98 84 -62 88 -40 7 40 -70 70 -93 84
-93 58z"/>
<path d="M302 4302 c10 -24 39 -109 63 -187 64 -211 209 -401 289 -381 25 6
42 36 56 104 6 26 13 55 16 64 8 28 -53 86 -139 130 -96 50 -186 130 -239 215
-22 35 -42 63 -45 63 -2 0 -3 -3 -1 -8z"/>
</g>
</svg>
